Coordinates
version=1
nRows=8
nColumns=34
inDegrees=yes

Units are S.I. units (second, meters, Newtons, ...)
If the header above contains a line with 'inDegrees', this indicates whether rotational values are in degrees (yes) or radians (no).

endheader
time	pelvis_tilt	pelvis_list	pelvis_rotation	pelvis_tx	pelvis_ty	pelvis_tz	hip_flexion_r	hip_adduction_r	hip_rotation_r	knee_angle_r	ankle_angle_r	subtalar_angle_r	mtp_angle_r	hip_flexion_l	hip_adduction_l	hip_rotation_l	knee_angle_l	ankle_angle_l	subtalar_angle_l	mtp_angle_l	lumbar_extension	lumbar_bending	lumbar_rotation	arm_flex_r	arm_add_r	arm_rot_r	elbow_flex_r	pro_sup_r	arm_flex_l	arm_add_l	arm_rot_l	elbow_flex_l	pro_sup_l
      5.13333330	     -9.27497654	      0.82913182	     -1.96446254	      0.03555061	      0.75060499	     -0.07662024	     50.95432602	    -14.54461821	     -6.88938255	     76.08398123	     39.08917064	      8.86026367	      0.00000000	     51.01080423	    -17.37956068	     -5.10811764	     75.27528006	     40.50024093	      6.48884300	      0.00000000	    -27.82812153	      1.22738008	     -1.30343299	    108.41536391	      2.44849224	     65.80817378	    116.63436799	     90.09009688	    119.59413481	     -6.37424354	     89.97123607	    123.33015739	     87.94662423
      5.15000000	     -9.68353780	      0.95437314	     -2.22506698	      0.03246254	      0.73942584	     -0.07837594	     53.23479261	    -14.76831449	     -6.14147813	     78.75154283	     39.68267630	      8.69316969	      0.00000000	     53.01027401	    -17.48881276	     -4.57576606	     77.85157248	     41.65129177	      6.48040402	      0.00000000	    -28.78156113	      1.18012769	     -1.00028589	    109.79181198	      1.81693362	     65.36475563	    116.07997821	     89.94118834	    121.08288956	     -6.06390238	     89.76300357	    123.09308825	     87.65643689
      5.16666670	    -10.43097603	      1.17270757	     -2.18728519	      0.03018210	      0.73160005	     -0.08019693	     55.65666673	    -15.10821332	     -5.36001517	     80.90644465	     40.03554609	      8.37379130	      0.00000000	     55.23186258	    -17.24919027	     -4.09008033	     79.98849714	     42.34599649	      6.70310472	      0.00000000	    -29.37980248	      1.16644584	     -1.05366792	    110.97846823	      1.55608721	     65.41228065	    117.10652080	     89.62216365	    122.25101638	     -5.56268179	     89.80921071	    123.75366551	     87.09175686
      5.18333330	    -10.71588117	      1.23335209	     -2.35842712	      0.02769432	      0.71891363	     -0.07955568	     57.65526500	    -15.23435373	     -4.65463486	     83.17687119	     40.64514461	      8.41392791	      0.00000000	     57.09354889	    -17.36770188	     -3.47111627	     82.39099993	     43.24791689	      6.88433329	      0.00000000	    -30.13618941	      1.07002555	     -1.17191666	    112.17137180	      2.03597669	     65.36962271	    117.84166158	     89.44550681	    123.18706124	     -5.38620241	     89.50989907	    123.82293297	     86.76978439
      5.20000000	    -11.16369275	      1.45559543	     -2.18870497	      0.03407901	      0.70863271	     -0.07815490	     59.43846678	    -15.59931989	     -4.01044084	     85.59537168	     41.45321456	      8.16776772	      0.00000000	     58.64761244	    -17.43793943	     -3.15494956	     84.44280740	     44.09554361	      7.39724279	      0.00000000	    -30.31138283	      0.91684689	     -0.51994559	    112.50739592	      1.45954527	     65.78761830	    119.33546174	     89.22356426	    122.92294528	     -5.04997240	     89.09899229	    124.40422176	     86.22143063
      5.21666670	    -11.55175143	      1.77782056	     -2.05579216	      0.02704550	      0.70025794	     -0.08097470	     61.10540588	    -15.95284529	     -3.29998983	     87.32587448	     42.02473349	      8.08006838	      0.00000000	     60.22325012	    -17.21192383	     -2.95243740	     86.15058255	     44.96362642	      8.01387486	      0.00000000	    -30.97401099	      0.84826456	      0.03010606	    113.40464361	      1.04395715	     66.03965079	    119.52343273	     89.07589748	    123.33757579	     -3.81835779	     88.74772437	    125.04584707	     85.88412477
      5.23333330	    -11.82744851	      1.92238836	     -2.16602183	      0.02877396	      0.68917272	     -0.08053201	     62.79019597	    -16.16652074	     -2.67093686	     89.40409110	     42.50340492	      8.05767752	      0.00000000	     61.55183095	    -17.44612452	     -2.72379724	     87.96680821	     45.77823211	      8.41619071	      0.00000000	    -31.54841159	      0.70338116	      0.87447236	    113.77265504	      0.68974008	     66.43173591	    120.14673748	     88.82883394	    123.40376901	     -2.97502303	     88.43901689	    125.02317720	     85.37555898
      5.25000000	    -12.36771001	      2.13798458	     -1.91279205	      0.02189775	      0.68236880	     -0.07694509	     64.69683875	    -16.13390565	     -1.98853982	     91.03307981	     43.12200194	      7.76789859	      0.00000000	     63.29154838	    -17.48785983	     -2.47112687	     89.46099205	     46.23226499	      8.81223618	      0.00000000	    -32.33542120	      0.43918391	      1.94839191	    114.69784114	     -0.63063149	     66.26267598	    120.59920992	     88.20601382	    123.63906373	     -1.89291633	     87.78536307	    124.56813872	     84.35404130
